<?xml version="1.0" encoding="utf-8" standalone="no"?>
<!DOCTYPE svg PUBLIC "-//W3C//DTD SVG 1.1//EN"
  "http://www.w3.org/Graphics/SVG/1.1/DTD/svg11.dtd">
<svg xmlns:xlink="http://www.w3.org/1999/xlink" width="787.68pt" height="505.98627pt" viewBox="0 0 787.68 505.98627" xmlns="http://www.w3.org/2000/svg" version="1.1">
 <metadata>
  <rdf:RDF xmlns:dc="http://purl.org/dc/elements/1.1/" xmlns:cc="http://creativecommons.org/ns#" xmlns:rdf="http://www.w3.org/1999/02/22-rdf-syntax-ns#">
   <cc:Work>
    <dc:type rdf:resource="http://purl.org/dc/dcmitype/StillImage"/>
    <dc:date>2026-10-06T21:07:50.064810</dc:date>
    <dc:format>image/svg+xml</dc:format>
    <dc:creator>
     <cc:Agent>
      <dc:title>Matplotlib v3.10.9, https://matplotlib.org/</dc:title>
     </cc:Agent>
    </dc:creator>
   </cc:Work>
  </rdf:RDF>
 </metadata>
 <defs>
  <style type="text/css">*{stroke-linejoin: round; stroke-linecap: butt}</style>
 </defs>
 <g id="figure_1">
  <g id="patch_1">
   <path d="M 0 505.98627 
L 787.68 505.98627 
L 787.68 0 
L 0 0 
z
" style="fill: #ffffff"/>
  </g>
  <g id="axes_1">
   <g id="patch_2">
    <path d="M 68.78 154.118125 
L 780.48 154.118125 
L 780.48 22.318125 
L 68.78 22.318125 
z
" style="fill: #ffffff"/>
   </g>
   <g id="matplotlib.axis_1">
    <g id="xtick_1">
     <g id="line2d_1">
      <defs>
       <path id="m88d2a18965" d="M 0 0 
L 0 3.5 
" style="stroke: #000000; stroke-width: 0.8"/>
      </defs>
      <g>
       <use xlink:href="#m88d2a18965" x="86.818479" y="154.118125" style="stroke: #000000; stroke-width: 0.8"/>
      </g>
     </g>
    </g>
    <g id="xtick_2">
     <g id="line2d_2">
      <g>
       <use xlink:href="#m88d2a18965" x="158.376083" y="154.118125" style="stroke: #000000; stroke-width: 0.8"/>
      </g>
     </g>
    </g>
    <g id="xtick_3">
     <g id="line2d_3">
      <g>
       <use xlink:href="#m88d2a18965" x="231.722627" y="154.118125" style="stroke: #000000; stroke-width: 0.8"/>
      </g>
     </g>
    </g>
    <g id="xtick_4">
     <g id="line2d_4">
      <g>
       <use xlink:href="#m88d2a18965" x="304.472857" y="154.118125" style="stroke: #000000; stroke-width: 0.8"/>
      </g>
     </g>
    </g>
    <g id="xtick_5">
     <g id="line2d_5">
      <g>
       <use xlink:href="#m88d2a18965" x="376.030461" y="154.118125" style="stroke: #000000; stroke-width: 0.8"/>
      </g>
     </g>
    </g>
    <g id="xtick_6">
     <g id="line2d_6">
      <g>
       <use xlink:href="#m88d2a18965" x="449.377005" y="154.118125" style="stroke: #000000; stroke-width: 0.8"/>
      </g>
     </g>
    </g>
    <g id="xtick_7">
     <g id="line2d_7">
      <g>
       <use xlink:href="#m88d2a18965" x="522.127235" y="154.118125" style="stroke: #000000; stroke-width: 0.8"/>
      </g>
     </g>
    </g>
    <g id="xtick_8">
     <g id="line2d_8">
      <g>
       <use xlink:href="#m88d2a18965" x="593.684839" y="154.118125" style="stroke: #000000; stroke-width: 0.8"/>
      </g>
     </g>
    </g>
    <g id="xtick_9">
     <g id="line2d_9">
      <g>
       <use xlink:href="#m88d2a18965" x="667.031382" y="154.118125" style="stroke: #000000; stroke-width: 0.8"/>
      </g>
     </g>
    </g>
    <g id="xtick_10">
     <g id="line2d_10">
      <g>
       <use xlink:href="#m88d2a18965" x="739.781613" y="154.118125" style="stroke: #000000; stroke-width: 0.8"/>
      </g>
     </g>
    </g>
   </g>
   <g id="matplotlib.axis_2">
    <g id="ytick_1">
     <g id="line2d_11">
      <defs>
       <path id="mbfb0bae373" d="M 0 0 
L -3.5 0 
" style="stroke: #000000; stroke-width: 0.8"/>
      </defs>
      <g>
       <use xlink:href="#mbfb0bae373" x="68.78" y="122.140153" style="stroke: #000000; stroke-width: 0.8"/>
      </g>
     </g>
     <g id="text_1">
      <text style="font-size: 10px; font-family: 'DejaVu Sans', 'Bitstream Vera Sans', 'Computer Modern Sans Serif', 'Lucida Grande', 'Verdana', 'Geneva', 'Lucid', 'Arial', 'Helvetica', 'Avant Garde', sans-serif; text-anchor: end" x="61.78" y="125.939372" transform="rotate(-0 61.78 125.939372)">2</text>
     </g>
    </g>
    <g id="ytick_2">
     <g id="line2d_12">
      <g>
       <use xlink:href="#mbfb0bae373" x="68.78" y="79.358908" style="stroke: #000000; stroke-width: 0.8"/>
      </g>
     </g>
     <g id="text_2">
      <text style="font-size: 10px; font-family: 'DejaVu Sans', 'Bitstream Vera Sans', 'Computer Modern Sans Serif', 'Lucida Grande', 'Verdana', 'Geneva', 'Lucid', 'Arial', 'Helvetica', 'Avant Garde', sans-serif; text-anchor: end" x="61.78" y="83.158127" transform="rotate(-0 61.78 83.158127)">4</text>
     </g>
    </g>
    <g id="ytick_3">
     <g id="line2d_13">
      <g>
       <use xlink:href="#mbfb0bae373" x="68.78" y="36.577663" style="stroke: #000000; stroke-width: 0.8"/>
      </g>
     </g>
     <g id="text_3">
      <text style="font-size: 10px; font-family: 'DejaVu Sans', 'Bitstream Vera Sans', 'Computer Modern Sans Serif', 'Lucida Grande', 'Verdana', 'Geneva', 'Lucid', 'Arial', 'Helvetica', 'Avant Garde', sans-serif; text-anchor: end" x="61.78" y="40.376881" transform="rotate(-0 61.78 40.376881)">6</text>
     </g>
    </g>
    <g id="text_4">
     <text style="font-size: 10px; font-family: 'DejaVu Sans', 'Bitstream Vera Sans', 'Computer Modern Sans Serif', 'Lucida Grande', 'Verdana', 'Geneva', 'Lucid', 'Arial', 'Helvetica', 'Avant Garde', sans-serif; text-anchor: middle" x="49.337813" y="88.218125" transform="rotate(-90 49.337813 88.218125)">Impressões</text>
    </g>
    <g id="text_5">
     <text style="font-size: 10px; font-family: 'DejaVu Sans', 'Bitstream Vera Sans', 'Computer Modern Sans Serif', 'Lucida Grande', 'Verdana', 'Geneva', 'Lucid', 'Arial', 'Helvetica', 'Avant Garde', sans-serif; text-anchor: start" x="68.78" y="19.318125" transform="rotate(-0 68.78 19.318125)">1e7</text>
    </g>
   </g>
   <g id="line2d_14">
    <path d="M 101.13 70.07403 
L 105.304194 63.547088 
L 109.478387 102.973759 
L 113.652581 83.367476 
L 117.826774 64.61907 
L 122.000968 97.548685 
L 126.175161 109.791477 
L 130.349355 89.12269 
L 134.523548 104.443383 
L 138.697742 62.027979 
L 142.871935 124.265514 
L 147.046129 139.500579 
L 151.220323 120.028791 
L 155.394516 94.927758 
L 159.56871 75.742293 
L 163.742903 148.127216 
L 167.917097 113.436683 
L 172.09129 92.40913 
L 176.265484 101.497667 
L 180.439677 100.542621 
L 184.613871 83.920631 
L 188.788065 78.489052 
L 192.962258 95.747299 
L 197.136452 90.760589 
L 201.310645 105.458612 
L 205.484839 137.705317 
L 209.659032 117.893808 
L 213.833226 103.935105 
L 218.007419 42.160119 
L 222.181613 119.810765 
L 226.355806 99.604858 
L 230.53 60.769734 
L 234.704194 104.739057 
L 238.878387 90.689275 
L 243.052581 108.511421 
L 247.226774 107.633274 
L 251.400968 52.195016 
L 255.575161 40.951671 
L 259.749355 67.998312 
L 263.923548 98.351327 
L 268.097742 54.452944 
L 272.271935 82.611495 
L 276.446129 79.843324 
L 280.620323 28.309034 
L 284.794516 85.264268 
L 288.96871 85.932357 
L 293.142903 51.283341 
L 297.317097 79.828396 
L 301.49129 43.090021 
L 305.665484 102.740116 
L 309.839677 84.187774 
L 314.013871 110.932354 
L 318.188065 67.814613 
L 322.362258 114.335934 
L 326.536452 115.10713 
L 330.710645 75.592995 
L 334.884839 127.983617 
L 339.059032 74.306823 
L 343.233226 84.311876 
L 347.407419 103.602096 
L 351.581613 120.255977 
L 355.755806 147.735554 
L 359.93 79.969965 
L 364.104194 91.147 
L 368.278387 131.68581 
L 372.452581 125.350982 
L 376.626774 104.965549 
L 380.800968 122.219508 
L 384.975161 87.99673 
L 389.149355 131.350506 
L 393.323548 126.541438 
L 397.497742 82.974901 
L 401.671935 41.113816 
L 405.846129 90.516971 
L 410.020323 67.135339 
L 414.194516 87.047421 
L 418.36871 88.619387 
L 422.542903 95.1839 
L 426.717097 95.821826 
L 430.89129 75.333464 
L 435.065484 69.012518 
L 439.239677 97.856566 
L 443.413871 65.865568 
L 447.588065 60.906189 
L 451.762258 59.795429 
L 455.936452 107.956474 
L 460.110645 109.691497 
L 464.284839 66.123526 
L 468.459032 82.252283 
L 472.633226 86.664776 
L 476.807419 97.313428 
L 480.981613 103.060796 
L 485.155806 44.94385 
L 489.33 91.972387 
L 493.504194 58.983204 
L 497.678387 33.265768 
L 501.852581 100.874272 
L 506.026774 72.677872 
L 510.200968 111.683715 
L 514.375161 107.954448 
L 518.549355 92.38809 
L 522.723548 64.460166 
L 526.897742 98.502471 
L 531.071935 125.564522 
L 535.246129 123.13145 
L 539.420323 120.23319 
L 543.594516 101.826279 
L 547.76871 29.912026 
L 551.942903 78.442202 
L 556.117097 103.103126 
L 560.29129 91.580046 
L 564.465484 94.048141 
L 568.639677 115.506369 
L 572.813871 126.853517 
L 576.988065 57.802208 
L 581.162258 71.432422 
L 585.336452 95.438711 
L 589.510645 134.371377 
L 593.684839 80.905927 
L 597.859032 124.834501 
L 602.033226 107.462134 
L 606.207419 87.039664 
L 610.381613 102.594035 
L 614.555806 78.088266 
L 618.73 87.458334 
L 622.904194 79.333667 
L 627.078387 86.975148 
L 631.252581 111.28613 
L 635.426774 62.174965 
L 639.600968 125.550766 
L 643.775161 99.755816 
L 647.949355 95.456682 
L 652.123548 41.494242 
L 656.297742 54.439412 
L 660.471935 65.15821 
L 664.646129 131.883633 
L 668.820323 40.55314 
L 672.994516 62.395239 
L 677.16871 121.280887 
L 681.342903 59.945373 
L 685.517097 66.725215 
L 689.69129 58.326957 
L 693.865484 81.986222 
L 698.039677 48.035806 
L 702.213871 89.755736 
L 706.388065 55.40211 
L 710.562258 80.079958 
L 714.736452 106.940445 
L 718.910645 61.328219 
L 723.084839 66.280814 
L 727.259032 51.202425 
L 731.433226 131.357796 
L 735.607419 87.575101 
L 739.781613 93.696137 
L 743.955806 77.605553 
L 748.13 87.166613 
L 748.13 87.166613 
" clip-path="url(#pe7162a57bf)" style="fill: none; stroke: #1f77b4; stroke-width: 1.5; stroke-linecap: square"/>
   </g>
   <g id="patch_3">
    <path d="M 68.78 154.118125 
L 68.78 22.318125 
" style="fill: none; stroke: #000000; stroke-width: 0.8; stroke-linejoin: miter; stroke-linecap: square"/>
   </g>
   <g id="patch_4">
    <path d="M 68.78 154.118125 
L 780.48 154.118125 
" style="fill: none; stroke: #000000; stroke-width: 0.8; stroke-linejoin: miter; stroke-linecap: square"/>
   </g>
   <g id="text_6">
    <text style="font-size: 12px; font-family: 'DejaVu Sans', 'Bitstream Vera Sans', 'Computer Modern Sans Serif', 'Lucida Grande', 'Verdana', 'Geneva', 'Lucid', 'Arial', 'Helvetica', 'Avant Garde', sans-serif; text-anchor: middle" x="424.63" y="16.318125" transform="rotate(-0 424.63 16.318125)">Channel0: volumes, gasto e CPMU nacionais</text>
   </g>
  </g>
  <g id="axes_2">
   <g id="patch_5">
    <path d="M 68.78 300.218125 
L 780.48 300.218125 
L 780.48 168.418125 
L 68.78 168.418125 
z
" style="fill: #ffffff"/>
   </g>
   <g id="matplotlib.axis_3">
    <g id="xtick_11">
     <g id="line2d_15">
      <g>
       <use xlink:href="#m88d2a18965" x="86.818479" y="300.218125" style="stroke: #000000; stroke-width: 0.8"/>
      </g>
     </g>
    </g>
    <g id="xtick_12">
     <g id="line2d_16">
      <g>
       <use xlink:href="#m88d2a18965" x="158.376083" y="300.218125" style="stroke: #000000; stroke-width: 0.8"/>
      </g>
     </g>
    </g>
    <g id="xtick_13">
     <g id="line2d_17">
      <g>
       <use xlink:href="#m88d2a18965" x="231.722627" y="300.218125" style="stroke: #000000; stroke-width: 0.8"/>
      </g>
     </g>
    </g>
    <g id="xtick_14">
     <g id="line2d_18">
      <g>
       <use xlink:href="#m88d2a18965" x="304.472857" y="300.218125" style="stroke: #000000; stroke-width: 0.8"/>
      </g>
     </g>
    </g>
    <g id="xtick_15">
     <g id="line2d_19">
      <g>
       <use xlink:href="#m88d2a18965" x="376.030461" y="300.218125" style="stroke: #000000; stroke-width: 0.8"/>
      </g>
     </g>
    </g>
    <g id="xtick_16">
     <g id="line2d_20">
      <g>
       <use xlink:href="#m88d2a18965" x="449.377005" y="300.218125" style="stroke: #000000; stroke-width: 0.8"/>
      </g>
     </g>
    </g>
    <g id="xtick_17">
     <g id="line2d_21">
      <g>
       <use xlink:href="#m88d2a18965" x="522.127235" y="300.218125" style="stroke: #000000; stroke-width: 0.8"/>
      </g>
     </g>
    </g>
    <g id="xtick_18">
     <g id="line2d_22">
      <g>
       <use xlink:href="#m88d2a18965" x="593.684839" y="300.218125" style="stroke: #000000; stroke-width: 0.8"/>
      </g>
     </g>
    </g>
    <g id="xtick_19">
     <g id="line2d_23">
      <g>
       <use xlink:href="#m88d2a18965" x="667.031382" y="300.218125" style="stroke: #000000; stroke-width: 0.8"/>
      </g>
     </g>
    </g>
    <g id="xtick_20">
     <g id="line2d_24">
      <g>
       <use xlink:href="#m88d2a18965" x="739.781613" y="300.218125" style="stroke: #000000; stroke-width: 0.8"/>
      </g>
     </g>
    </g>
   </g>
   <g id="matplotlib.axis_4">
    <g id="ytick_4">
     <g id="line2d_25">
      <g>
       <use xlink:href="#mbfb0bae373" x="68.78" y="281.84994" style="stroke: #000000; stroke-width: 0.8"/>
      </g>
     </g>
     <g id="text_7">
      <text style="font-size: 10px; font-family: 'DejaVu Sans', 'Bitstream Vera Sans', 'Computer Modern Sans Serif', 'Lucida Grande', 'Verdana', 'Geneva', 'Lucid', 'Arial', 'Helvetica', 'Avant Garde', sans-serif; text-anchor: end" x="61.78" y="285.649159" transform="rotate(-0 61.78 285.649159)">100000</text>
     </g>
    </g>
    <g id="ytick_5">
     <g id="line2d_26">
      <g>
       <use xlink:href="#mbfb0bae373" x="68.78" y="252.678483" style="stroke: #000000; stroke-width: 0.8"/>
      </g>
     </g>
     <g id="text_8">
      <text style="font-size: 10px; font-family: 'DejaVu Sans', 'Bitstream Vera Sans', 'Computer Modern Sans Serif', 'Lucida Grande', 'Verdana', 'Geneva', 'Lucid', 'Arial', 'Helvetica', 'Avant Garde', sans-serif; text-anchor: end" x="61.78" y="256.477701" transform="rotate(-0 61.78 256.477701)">200000</text>
     </g>
    </g>
    <g id="ytick_6">
     <g id="line2d_27">
      <g>
       <use xlink:href="#mbfb0bae373" x="68.78" y="223.507025" style="stroke: #000000; stroke-width: 0.8"/>
      </g>
     </g>
     <g id="text_9">
      <text style="font-size: 10px; font-family: 'DejaVu Sans', 'Bitstream Vera Sans', 'Computer Modern Sans Serif', 'Lucida Grande', 'Verdana', 'Geneva', 'Lucid', 'Arial', 'Helvetica', 'Avant Garde', sans-serif; text-anchor: end" x="61.78" y="227.306244" transform="rotate(-0 61.78 227.306244)">300000</text>
     </g>
    </g>
    <g id="ytick_7">
     <g id="line2d_28">
      <g>
       <use xlink:href="#mbfb0bae373" x="68.78" y="194.335568" style="stroke: #000000; stroke-width: 0.8"/>
      </g>
     </g>
     <g id="text_10">
      <text style="font-size: 10px; font-family: 'DejaVu Sans', 'Bitstream Vera Sans', 'Computer Modern Sans Serif', 'Lucida Grande', 'Verdana', 'Geneva', 'Lucid', 'Arial', 'Helvetica', 'Avant Garde', sans-serif; text-anchor: end" x="61.78" y="198.134786" transform="rotate(-0 61.78 198.134786)">400000</text>
     </g>
    </g>
    <g id="text_11">
     <text style="font-size: 10px; font-family: 'DejaVu Sans', 'Bitstream Vera Sans', 'Computer Modern Sans Serif', 'Lucida Grande', 'Verdana', 'Geneva', 'Lucid', 'Arial', 'Helvetica', 'Avant Garde', sans-serif; text-anchor: middle" x="17.525313" y="234.318125" transform="rotate(-90 17.525313 234.318125)">Gasto (moeda não especificada)</text>
    </g>
   </g>
   <g id="line2d_29">
    <path d="M 101.13 216.17403 
L 105.304194 209.647091 
L 109.478387 249.07376 
L 113.652581 229.467476 
L 117.826774 210.719072 
L 122.000968 243.648685 
L 126.175161 255.891478 
L 130.349355 235.222691 
L 134.523548 250.543384 
L 138.697742 208.127981 
L 142.871935 270.365515 
L 147.046129 285.600579 
L 151.220323 266.128793 
L 155.394516 241.027758 
L 159.56871 221.842294 
L 163.742903 294.227216 
L 167.917097 259.536684 
L 172.09129 238.50913 
L 176.265484 247.597668 
L 180.439677 246.642623 
L 184.613871 230.020633 
L 188.788065 224.589052 
L 192.962258 241.8473 
L 197.136452 236.86059 
L 201.310645 251.558613 
L 205.484839 283.805318 
L 209.659032 263.993809 
L 213.833226 250.035106 
L 218.007419 188.26012 
L 222.181613 265.910766 
L 226.355806 245.704859 
L 230.53 206.869735 
L 234.704194 250.839058 
L 238.878387 236.789276 
L 243.052581 254.611423 
L 247.226774 253.733276 
L 251.400968 198.295017 
L 255.575161 187.051672 
L 259.749355 214.098313 
L 263.923548 244.451329 
L 268.097742 200.552945 
L 272.271935 228.711497 
L 276.446129 225.943326 
L 280.620323 174.409034 
L 284.794516 231.36427 
L 288.96871 232.032358 
L 293.142903 197.383341 
L 297.317097 225.928398 
L 301.49129 189.190021 
L 305.665484 248.840117 
L 309.839677 230.287775 
L 314.013871 257.032355 
L 318.188065 213.914615 
L 322.362258 260.435935 
L 326.536452 261.207131 
L 330.710645 221.692996 
L 334.884839 274.083618 
L 339.059032 220.406825 
L 343.233226 230.411878 
L 347.407419 249.702096 
L 351.581613 266.355977 
L 355.755806 293.835553 
L 359.93 226.069967 
L 364.104194 237.247001 
L 368.278387 277.785811 
L 372.452581 271.450982 
L 376.626774 251.06555 
L 380.800968 268.319508 
L 384.975161 234.096731 
L 389.149355 277.450506 
L 393.323548 272.641438 
L 397.497742 229.074902 
L 401.671935 187.213817 
L 405.846129 236.616972 
L 410.020323 213.235341 
L 414.194516 233.147421 
L 418.36871 234.719388 
L 422.542903 241.283902 
L 426.717097 241.921826 
L 430.89129 221.433465 
L 435.065484 215.11252 
L 439.239677 243.956567 
L 443.413871 211.96557 
L 447.588065 207.006191 
L 451.762258 205.89543 
L 455.936452 254.056475 
L 460.110645 255.791498 
L 464.284839 212.223529 
L 468.459032 228.352285 
L 472.633226 232.764778 
L 476.807419 243.413429 
L 480.981613 249.160797 
L 485.155806 191.043852 
L 489.33 238.072388 
L 493.504194 205.083206 
L 497.678387 179.365769 
L 501.852581 246.974273 
L 506.026774 218.777874 
L 510.200968 257.783716 
L 514.375161 254.054449 
L 518.549355 238.48809 
L 522.723548 210.560167 
L 526.897742 244.602472 
L 531.071935 271.664522 
L 535.246129 269.23145 
L 539.420323 266.33319 
L 543.594516 247.92628 
L 547.76871 176.012028 
L 551.942903 224.542204 
L 556.117097 249.203126 
L 560.29129 237.680047 
L 564.465484 240.148142 
L 568.639677 261.60637 
L 572.813871 272.953517 
L 576.988065 203.902209 
L 581.162258 217.532424 
L 585.336452 241.538712 
L 589.510645 280.471377 
L 593.684839 227.005927 
L 597.859032 270.934501 
L 602.033226 253.562135 
L 606.207419 233.139665 
L 610.381613 248.694036 
L 614.555806 224.188268 
L 618.73 233.558335 
L 622.904194 225.433669 
L 627.078387 233.07515 
L 631.252581 257.386129 
L 635.426774 208.274967 
L 639.600968 271.650766 
L 643.775161 245.855817 
L 647.949355 241.556683 
L 652.123548 187.594244 
L 656.297742 200.539414 
L 660.471935 211.258214 
L 664.646129 277.983633 
L 668.820323 186.653141 
L 672.994516 208.49524 
L 677.16871 267.380887 
L 681.342903 206.045375 
L 685.517097 212.825216 
L 689.69129 204.426958 
L 693.865484 228.086224 
L 698.039677 194.13581 
L 702.213871 235.855738 
L 706.388065 201.50211 
L 710.562258 226.17996 
L 714.736452 253.040446 
L 718.910645 207.42822 
L 723.084839 212.380814 
L 727.259032 197.302427 
L 731.433226 277.457795 
L 735.607419 233.675101 
L 739.781613 239.796137 
L 743.955806 223.705553 
L 748.13 233.266614 
L 748.13 233.266614 
" clip-path="url(#p032404a5dd)" style="fill: none; stroke: #1f77b4; stroke-width: 1.5; stroke-linecap: square"/>
   </g>
   <g id="patch_6">
    <path d="M 68.78 300.218125 
L 68.78 168.418125 
" style="fill: none; stroke: #000000; stroke-width: 0.8; stroke-linejoin: miter; stroke-linecap: square"/>
   </g>
   <g id="patch_7">
    <path d="M 68.78 300.218125 
L 780.48 300.218125 
" style="fill: none; stroke: #000000; stroke-width: 0.8; stroke-linejoin: miter; stroke-linecap: square"/>
   </g>
  </g>
  <g id="axes_3">
   <g id="patch_8">
    <path d="M 68.78 446.318125 
L 780.48 446.318125 
L 780.48 314.518125 
L 68.78 314.518125 
z
" style="fill: #ffffff"/>
   </g>
   <g id="matplotlib.axis_5">
    <g id="xtick_21">
     <g id="line2d_30">
      <g>
       <use xlink:href="#m88d2a18965" x="86.818479" y="446.318125" style="stroke: #000000; stroke-width: 0.8"/>
      </g>
     </g>
     <g id="text_12">
      <text style="font-size: 10px; font-family: 'DejaVu Sans', 'Bitstream Vera Sans', 'Computer Modern Sans Serif', 'Lucida Grande', 'Verdana', 'Geneva', 'Lucid', 'Arial', 'Helvetica', 'Avant Garde', sans-serif; text-anchor: middle" x="86.818479" y="460.916563" transform="rotate(-0 86.818479 460.916563)">2021-01</text>
     </g>
    </g>
    <g id="xtick_22">
     <g id="line2d_31">
      <g>
       <use xlink:href="#m88d2a18965" x="158.376083" y="446.318125" style="stroke: #000000; stroke-width: 0.8"/>
      </g>
     </g>
     <g id="text_13">
      <text style="font-size: 10px; font-family: 'DejaVu Sans', 'Bitstream Vera Sans', 'Computer Modern Sans Serif', 'Lucida Grande', 'Verdana', 'Geneva', 'Lucid', 'Arial', 'Helvetica', 'Avant Garde', sans-serif; text-anchor: middle" x="158.376083" y="460.916563" transform="rotate(-0 158.376083 460.916563)">2021-05</text>
     </g>
    </g>
    <g id="xtick_23">
     <g id="line2d_32">
      <g>
       <use xlink:href="#m88d2a18965" x="231.722627" y="446.318125" style="stroke: #000000; stroke-width: 0.8"/>
      </g>
     </g>
     <g id="text_14">
      <text style="font-size: 10px; font-family: 'DejaVu Sans', 'Bitstream Vera Sans', 'Computer Modern Sans Serif', 'Lucida Grande', 'Verdana', 'Geneva', 'Lucid', 'Arial', 'Helvetica', 'Avant Garde', sans-serif; text-anchor: middle" x="231.722627" y="460.916563" transform="rotate(-0 231.722627 460.916563)">2021-09</text>
     </g>
    </g>
    <g id="xtick_24">
     <g id="line2d_33">
      <g>
       <use xlink:href="#m88d2a18965" x="304.472857" y="446.318125" style="stroke: #000000; stroke-width: 0.8"/>
      </g>
     </g>
     <g id="text_15">
      <text style="font-size: 10px; font-family: 'DejaVu Sans', 'Bitstream Vera Sans', 'Computer Modern Sans Serif', 'Lucida Grande', 'Verdana', 'Geneva', 'Lucid', 'Arial', 'Helvetica', 'Avant Garde', sans-serif; text-anchor: middle" x="304.472857" y="460.916563" transform="rotate(-0 304.472857 460.916563)">2022-01</text>
     </g>
    </g>
    <g id="xtick_25">
     <g id="line2d_34">
      <g>
       <use xlink:href="#m88d2a18965" x="376.030461" y="446.318125" style="stroke: #000000; stroke-width: 0.8"/>
      </g>
     </g>
     <g id="text_16">
      <text style="font-size: 10px; font-family: 'DejaVu Sans', 'Bitstream Vera Sans', 'Computer Modern Sans Serif', 'Lucida Grande', 'Verdana', 'Geneva', 'Lucid', 'Arial', 'Helvetica', 'Avant Garde', sans-serif; text-anchor: middle" x="376.030461" y="460.916563" transform="rotate(-0 376.030461 460.916563)">2022-05</text>
     </g>
    </g>
    <g id="xtick_26">
     <g id="line2d_35">
      <g>
       <use xlink:href="#m88d2a18965" x="449.377005" y="446.318125" style="stroke: #000000; stroke-width: 0.8"/>
      </g>
     </g>
     <g id="text_17">
      <text style="font-size: 10px; font-family: 'DejaVu Sans', 'Bitstream Vera Sans', 'Computer Modern Sans Serif', 'Lucida Grande', 'Verdana', 'Geneva', 'Lucid', 'Arial', 'Helvetica', 'Avant Garde', sans-serif; text-anchor: middle" x="449.377005" y="460.916563" transform="rotate(-0 449.377005 460.916563)">2022-09</text>
     </g>
    </g>
    <g id="xtick_27">
     <g id="line2d_36">
      <g>
       <use xlink:href="#m88d2a18965" x="522.127235" y="446.318125" style="stroke: #000000; stroke-width: 0.8"/>
      </g>
     </g>
     <g id="text_18">
      <text style="font-size: 10px; font-family: 'DejaVu Sans', 'Bitstream Vera Sans', 'Computer Modern Sans Serif', 'Lucida Grande', 'Verdana', 'Geneva', 'Lucid', 'Arial', 'Helvetica', 'Avant Garde', sans-serif; text-anchor: middle" x="522.127235" y="460.916563" transform="rotate(-0 522.127235 460.916563)">2023-01</text>
     </g>
    </g>
    <g id="xtick_28">
     <g id="line2d_37">
      <g>
       <use xlink:href="#m88d2a18965" x="593.684839" y="446.318125" style="stroke: #000000; stroke-width: 0.8"/>
      </g>
     </g>
     <g id="text_19">
      <text style="font-size: 10px; font-family: 'DejaVu Sans', 'Bitstream Vera Sans', 'Computer Modern Sans Serif', 'Lucida Grande', 'Verdana', 'Geneva', 'Lucid', 'Arial', 'Helvetica', 'Avant Garde', sans-serif; text-anchor: middle" x="593.684839" y="460.916563" transform="rotate(-0 593.684839 460.916563)">2023-05</text>
     </g>
    </g>
    <g id="xtick_29">
     <g id="line2d_38">
      <g>
       <use xlink:href="#m88d2a18965" x="667.031382" y="446.318125" style="stroke: #000000; stroke-width: 0.8"/>
      </g>
     </g>
     <g id="text_20">
      <text style="font-size: 10px; font-family: 'DejaVu Sans', 'Bitstream Vera Sans', 'Computer Modern Sans Serif', 'Lucida Grande', 'Verdana', 'Geneva', 'Lucid', 'Arial', 'Helvetica', 'Avant Garde', sans-serif; text-anchor: middle" x="667.031382" y="460.916563" transform="rotate(-0 667.031382 460.916563)">2023-09</text>
     </g>
    </g>
    <g id="xtick_30">
     <g id="line2d_39">
      <g>
       <use xlink:href="#m88d2a18965" x="739.781613" y="446.318125" style="stroke: #000000; stroke-width: 0.8"/>
      </g>
     </g>
     <g id="text_21">
      <text style="font-size: 10px; font-family: 'DejaVu Sans', 'Bitstream Vera Sans', 'Computer Modern Sans Serif', 'Lucida Grande', 'Verdana', 'Geneva', 'Lucid', 'Arial', 'Helvetica', 'Avant Garde', sans-serif; text-anchor: middle" x="739.781613" y="460.916563" transform="rotate(-0 739.781613 460.916563)">2024-01</text>
     </g>
    </g>
    <g id="text_22">
     <text style="font-size: 10px; font-family: 'DejaVu Sans', 'Bitstream Vera Sans', 'Computer Modern Sans Serif', 'Lucida Grande', 'Verdana', 'Geneva', 'Lucid', 'Arial', 'Helvetica', 'Avant Garde', sans-serif; text-anchor: middle" x="424.63" y="474.594688" transform="rotate(-0 424.63 474.594688)">Semana</text>
    </g>
   </g>
   <g id="matplotlib.axis_6">
    <g id="ytick_8">
     <g id="line2d_40">
      <g>
       <use xlink:href="#mbfb0bae373" x="68.78" y="446.318125" style="stroke: #000000; stroke-width: 0.8"/>
      </g>
     </g>
     <g id="text_23">
      <text style="font-size: 10px; font-family: 'DejaVu Sans', 'Bitstream Vera Sans', 'Computer Modern Sans Serif', 'Lucida Grande', 'Verdana', 'Geneva', 'Lucid', 'Arial', 'Helvetica', 'Avant Garde', sans-serif; text-anchor: end" x="61.78" y="450.117344" transform="rotate(-0 61.78 450.117344)">0.000</text>
     </g>
    </g>
    <g id="ytick_9">
     <g id="line2d_41">
      <g>
       <use xlink:href="#mbfb0bae373" x="68.78" y="413.032528" style="stroke: #000000; stroke-width: 0.8"/>
      </g>
     </g>
     <g id="text_24">
      <text style="font-size: 10px; font-family: 'DejaVu Sans', 'Bitstream Vera Sans', 'Computer Modern Sans Serif', 'Lucida Grande', 'Verdana', 'Geneva', 'Lucid', 'Arial', 'Helvetica', 'Avant Garde', sans-serif; text-anchor: end" x="61.78" y="416.831747" transform="rotate(-0 61.78 416.831747)">0.002</text>
     </g>
    </g>
    <g id="ytick_10">
     <g id="line2d_42">
      <g>
       <use xlink:href="#mbfb0bae373" x="68.78" y="379.746931" style="stroke: #000000; stroke-width: 0.8"/>
      </g>
     </g>
     <g id="text_25">
      <text style="font-size: 10px; font-family: 'DejaVu Sans', 'Bitstream Vera Sans', 'Computer Modern Sans Serif', 'Lucida Grande', 'Verdana', 'Geneva', 'Lucid', 'Arial', 'Helvetica', 'Avant Garde', sans-serif; text-anchor: end" x="61.78" y="383.546149" transform="rotate(-0 61.78 383.546149)">0.004</text>
     </g>
    </g>
    <g id="ytick_11">
     <g id="line2d_43">
      <g>
       <use xlink:href="#mbfb0bae373" x="68.78" y="346.461333" style="stroke: #000000; stroke-width: 0.8"/>
      </g>
     </g>
     <g id="text_26">
      <text style="font-size: 10px; font-family: 'DejaVu Sans', 'Bitstream Vera Sans', 'Computer Modern Sans Serif', 'Lucida Grande', 'Verdana', 'Geneva', 'Lucid', 'Arial', 'Helvetica', 'Avant Garde', sans-serif; text-anchor: end" x="61.78" y="350.260552" transform="rotate(-0 61.78 350.260552)">0.006</text>
     </g>
    </g>
    <g id="text_27">
     <text style="font-size: 10px; font-family: 'DejaVu Sans', 'Bitstream Vera Sans', 'Computer Modern Sans Serif', 'Lucida Grande', 'Verdana', 'Geneva', 'Lucid', 'Arial', 'Helvetica', 'Avant Garde', sans-serif; text-anchor: middle" x="27.072188" y="380.418125" transform="rotate(-90 27.072188 380.418125)">Gasto / impressão</text>
    </g>
   </g>
   <g id="line2d_44">
    <path d="M 101.13 324.281089 
L 748.13 324.281089 
L 748.13 324.281089 
" clip-path="url(#p8a5ef917a4)" style="fill: none; stroke: #1f77b4; stroke-width: 1.5; stroke-linecap: square"/>
   </g>
   <g id="patch_9">
    <path d="M 68.78 446.318125 
L 68.78 314.518125 
" style="fill: none; stroke: #000000; stroke-width: 0.8; stroke-linejoin: miter; stroke-linecap: square"/>
   </g>
   <g id="patch_10">
    <path d="M 68.78 446.318125 
L 780.48 446.318125 
" style="fill: none; stroke: #000000; stroke-width: 0.8; stroke-linejoin: miter; stroke-linecap: square"/>
   </g>
   <g id="text_28">
    <text style="font-size: 8px; font-family: 'DejaVu Sans', 'Bitstream Vera Sans', 'Computer Modern Sans Serif', 'Lucida Grande', 'Verdana', 'Geneva', 'Lucid', 'Arial', 'Helvetica', 'Avant Garde', sans-serif; text-anchor: start" x="75.897" y="343.514125" transform="rotate(-0 75.897 343.514125)">CV relativo=7.75e-09; variação microscópica</text>
   </g>
  </g>
  <g id="text_29">
   <text style="font-size: 7px; font-family: 'DejaVu Sans', 'Bitstream Vera Sans', 'Computer Modern Sans Serif', 'Lucida Grande', 'Verdana', 'Geneva', 'Lucid', 'Arial', 'Helvetica', 'Avant Garde', sans-serif; text-anchor: start; fill: #555555" x="7.2" y="497.330489" transform="rotate(-0 7.2 497.330489)">Fonte: Google Meridian · dados simulados · análise descritiva</text>
  </g>
 </g>
 <defs>
  <clipPath id="pe7162a57bf">
   <rect x="68.78" y="22.318125" width="711.7" height="131.8"/>
  </clipPath>
  <clipPath id="p032404a5dd">
   <rect x="68.78" y="168.418125" width="711.7" height="131.8"/>
  </clipPath>
  <clipPath id="p8a5ef917a4">
   <rect x="68.78" y="314.518125" width="711.7" height="131.8"/>
  </clipPath>
 </defs>
</svg>
